<?xml version="1.0" standalone="no"?><!DOCTYPE svg PUBLIC "-//W3C//DTD SVG 1.1//EN" "http://www.w3.org/Graphics/SVG/1.1/DTD/svg11.dtd"><svg t="1681130811610" class="icon" viewBox="0 0 1024 1024" version="1.1" xmlns="http://www.w3.org/2000/svg" p-id="2685" xmlns:xlink="http://www.w3.org/1999/xlink" width="200" height="200"><path d="M959.1 515.1c0 239.7-194.3 434-434 434s-434-194.3-434-434 194.3-434 434-434 434 194.3 434 434z m-434-448c-247.4 0-448 200.6-448 448s200.6 448 448 448 448-200.6 448-448-200.6-448-448-448z" fill="#ffffff" p-id="2686"></path><path d="M728.8 678.2l-1.2-73.9c0-23.2-19-42.2-42.2-42.2h-80.8l-0.2-0.5c-5.9-6.6-8-9-8.5-15.4-1.7-21.7 9.5-38 22.4-57.1 14.9-22 32-47.1 32-84.6 0-65.6-51.9-113.4-123.4-113.4s-123.4 47.8-123.4 113.4c0 37.3 16.3 62.4 31 84.4 12.7 19 23.4 35.6 21.7 57.3-0.5 6.6-2.4 8.8-8.5 15.4l-81.3 0.5c-23.4 0-42.2 19-42.2 42.4l1 73.7h403.6z m-362.5-90.5h92.5l7.8-9c7.1-7.8 13.7-15.4 14.9-30.5 2.4-30.5-12-52.2-25.9-73.4-13.7-21-26.6-40.5-26.6-70.2 0-51.7 40.2-87.8 97.8-87.8 57.6 0 97.8 36.1 97.8 87.8 0 29.8-13.4 49.3-27.6 70.2-14.4 21.2-29.3 42.9-26.8 73.4 1.2 15.1 7.8 22.7 14.9 30.5l7.8 9h92.5c9.3 0 16.6 7.6 16.6 16.8l0.7 48H350.2l-0.7-48.3c0.2-8.9 7.8-16.5 16.8-16.5z m0 0M717.6 709.5h-385c-8.8 0-15.9 6-15.9 14.8s7.1 14.8 15.9 14.8h385c8.8 0 15.9-6 15.9-14.8s-7.1-14.8-15.9-14.8z m0 0" fill="#ffffff" p-id="2687"></path></svg>