<?xml version="1.0" standalone="no"?><!DOCTYPE svg PUBLIC "-//W3C//DTD SVG 1.1//EN" "http://www.w3.org/Graphics/SVG/1.1/DTD/svg11.dtd"><svg t="1681132997891" class="icon" viewBox="0 0 1024 1024" version="1.1" xmlns="http://www.w3.org/2000/svg" p-id="10807" width="64" height="64" xmlns:xlink="http://www.w3.org/1999/xlink"><path d="M512 960C264.533333 960 64 759.466667 64 512S264.533333 64 512 64s448 200.533333 448 448-200.533333 448-448 448z m0-853.333333C288 106.666667 106.666667 288 106.666667 512s181.333333 405.333333 405.333333 405.333333 405.333333-181.333333 405.333333-405.333333S736 106.666667 512 106.666667z" fill="#ffffff" p-id="10808"></path><path d="M512 469.333333c-6.4 0-12.8-2.133333-17.066667-8.533333l-106.666666-128c-8.533333-8.533333-6.4-23.466667 2.133333-29.866667 8.533333-8.533333 23.466667-6.4 29.866667 2.133334l89.6 108.8 89.6-108.8c8.533333-8.533333 21.333333-10.666667 29.866666-2.133334 8.533333 8.533333 10.666667 21.333333 2.133334 29.866667l-106.666667 128c0 6.4-6.4 8.533333-12.8 8.533333zM640 597.333333H384c-12.8 0-21.333333-8.533333-21.333333-21.333333s8.533333-21.333333 21.333333-21.333333h256c12.8 0 21.333333 8.533333 21.333333 21.333333s-8.533333 21.333333-21.333333 21.333333z" fill="#ffffff" p-id="10809"></path><path d="M640 469.333333H384c-12.8 0-21.333333-8.533333-21.333333-21.333333s8.533333-21.333333 21.333333-21.333333h256c12.8 0 21.333333 8.533333 21.333333 21.333333s-8.533333 21.333333-21.333333 21.333333z" fill="#ffffff" p-id="10810"></path><path d="M512 725.333333c-12.8 0-21.333333-8.533333-21.333333-21.333333V448c0-12.8 8.533333-21.333333 21.333333-21.333333s21.333333 8.533333 21.333333 21.333333v256c0 12.8-8.533333 21.333333-21.333333 21.333333z" fill="#ffffff" p-id="10811"></path></svg>