<?xml version="1.0" standalone="no"?><!DOCTYPE svg PUBLIC "-//W3C//DTD SVG 1.1//EN" "http://www.w3.org/Graphics/SVG/1.1/DTD/svg11.dtd"><svg t="1681131802127" class="icon" viewBox="0 0 1024 1024" version="1.1" xmlns="http://www.w3.org/2000/svg" p-id="5680" xmlns:xlink="http://www.w3.org/1999/xlink" width="200" height="200"><path d="M307.2 580.266667h136.533333v136.533333H307.2zM870.4 887.466667h-716.8C95.573333 887.466667 34.133333 948.906667 34.133333 1006.933333c0 10.24 6.826667 17.066667 17.066667 17.066667h921.6c10.24 0 17.066667-6.826667 17.066667-17.066667 0-58.026667-61.44-119.466667-119.466667-119.466666zM170.666667 512c34.133333 0 68.266667-17.066667 85.333333-44.373333C273.066667 494.933333 307.2 512 341.333333 512s68.266667-17.066667 85.333334-44.373333C443.733333 494.933333 477.866667 512 512 512s68.266667-17.066667 85.333333-44.373333C614.4 494.933333 648.533333 512 682.666667 512s68.266667-17.066667 85.333333-47.786667C785.066667 494.933333 819.2 512 853.333333 512c58.026667 0 102.4-44.373333 102.4-102.4v-6.826667l-102.4-218.453333v-3.413333c-3.413333-6.826667-10.24-10.24-17.066666-10.24h-648.533334c-6.826667 0-13.653333 3.413333-17.066666 10.24l-102.4 221.866666v6.826667c0 58.026667 44.373333 102.4 102.4 102.4zM836.266667 136.533333c6.826667 0 10.24 0 17.066666 3.413334V102.4c0-58.026667-44.373333-102.4-102.4-102.4H273.066667C215.04 0 170.666667 44.373333 170.666667 102.4v37.546667c6.826667-3.413333 10.24-3.413333 17.066666-3.413334h648.533334z" fill="#ffffff" p-id="5681"></path><path d="M853.333333 853.333333v-307.2c-30.72 0-61.44-10.24-85.333333-30.72-47.786667 37.546667-122.88 37.546667-170.666667 0-47.786667 37.546667-122.88 37.546667-170.666666 0-47.786667 37.546667-122.88 37.546667-170.666667 0-23.893333 20.48-54.613333 30.72-85.333333 30.72v307.2h341.333333v-290.133333c0-10.24 6.826667-17.066667 17.066667-17.066667h204.8c10.24 0 17.066667 6.826667 17.066666 17.066667V853.333333h102.4z m-375.466666-119.466666c0 10.24-6.826667 17.066667-17.066667 17.066666h-170.666667c-10.24 0-17.066667-6.826667-17.066666-17.066666v-170.666667c0-10.24 6.826667-17.066667 17.066666-17.066667h170.666667c10.24 0 17.066667 6.826667 17.066667 17.066667v170.666667z" fill="#ffffff" p-id="5682"></path><path d="M546.133333 580.266667h170.666667v273.066666h-170.666667z" fill="#ffffff" p-id="5683"></path></svg>