<?xml version="1.0" standalone="no"?><!DOCTYPE svg PUBLIC "-//W3C//DTD SVG 1.1//EN" "http://www.w3.org/Graphics/SVG/1.1/DTD/svg11.dtd"><svg t="1681133172943" class="icon" viewBox="0 0 1024 1024" version="1.1" xmlns="http://www.w3.org/2000/svg" p-id="11482" width="32" height="32" xmlns:xlink="http://www.w3.org/1999/xlink"><path d="M663.050638 171.588225H303.617389a49.853336 49.853336 0 0 1-49.802374-49.802374v-71.983477A49.853336 49.853336 0 0 1 303.617389 0h359.433249a49.853336 49.853336 0 0 1 49.802374 49.802374v71.983477a49.853336 49.853336 0 0 1-49.802374 49.802374z m0-49.802374z m-359.433249-71.983477v71.983477H662.974196l0.076442-71.983477zM638.69092 1024H130.092617A74.799114 74.799114 0 0 1 55.382686 949.290069V117.084629a74.786374 74.786374 0 0 1 74.709931-74.69719h51.331227v49.802374H130.092617A24.920298 24.920298 0 0 0 105.18506 117.084629v832.20544a24.920298 24.920298 0 0 0 24.907557 24.907557h508.598303zM911.25986 641.723144h-49.802374V117.084629a24.920298 24.920298 0 0 0-24.907557-24.894816H779.03959V42.387439h57.510339a74.786374 74.786374 0 0 1 74.709931 74.69719z" p-id="11483" fill="#ffffff"></path><path d="M248.196481 337.583398h347.546421v49.802374H248.196481zM241.698858 532.461144h506.674497v49.802374H241.698858zM842.053798 987.027248L815.64287 960.629059l100.165327-100.190808-101.133601-101.1336 26.398189-26.410929L968.617314 860.438251l-126.563516 126.588997z" p-id="11484" fill="#ffffff"></path><path d="M675.115833 841.276632h260.465524v37.354965H675.115833z" p-id="11485" fill="#ffffff"></path></svg>